<svg width="75" height="75" viewBox="0 0 75 75" fill="none" xmlns="http://www.w3.org/2000/svg">
<g clip-path="url(#clip0_3_76)">
<path d="M0.47124 18.4775L32.9399 44.3388C33.1712 44.5337 35.2575 46.25 37.5 46.25C39.7525 46.25 41.8575 44.5975 42.0838 44.4138L74.5301 18.4762C74.8276 18.2388 75 17.88 75 17.5C75 14.0537 72.1963 11.25 68.75 11.25H6.25005C2.80371 11.25 0 14.0537 0 17.5C0 17.8812 0.17373 18.2399 0.47124 18.4775ZM6.25005 13.75H68.7501C70.6251 13.75 72.1838 15.1337 72.4576 16.9326L40.5174 42.4649C40.0724 42.8224 38.6612 43.7499 37.5 43.7499C36.3737 43.7499 34.9938 42.7975 34.5287 42.4074L2.54253 16.9312C2.81748 15.1326 4.37505 13.75 6.25005 13.75Z" fill="black"/>
<path d="M22.9775 40.2675L5.47749 54.0174C4.93506 54.4437 4.84131 55.2299 5.26743 55.7725C5.51367 56.0862 5.87988 56.25 6.2499 56.25C6.52119 56.25 6.79365 56.1626 7.02246 55.9825L24.5225 42.2325C25.0649 41.8062 25.1588 41.02 24.7326 40.4775C24.3063 39.9337 23.52 39.8413 22.9775 40.2675Z" fill="black"/>
<path d="M52.0225 40.2676C51.48 39.8413 50.6937 39.935 50.2674 40.4776C49.8412 41.0202 49.9349 41.8064 50.4775 42.2326L67.9775 55.9827C68.2063 56.1627 68.4788 56.2502 68.7488 56.2502C69.1188 56.2502 69.4863 56.0864 69.7326 55.7726C70.1588 55.2302 70.0651 54.4439 69.5225 54.0176L52.0225 40.2676Z" fill="black"/>
<path d="M73.7501 22.5C73.0601 22.5 72.5001 23.06 72.5001 23.7499V57.4999C72.5001 59.5674 70.8176 61.2499 68.7501 61.2499H6.25005C4.18257 61.2499 2.50005 59.5674 2.50005 57.4999V23.7499C2.50005 23.06 1.94004 22.5 1.2501 22.5C0.560156 22.5 0 23.06 0 23.7499V57.4999C0 60.9463 2.80371 63.75 6.25005 63.75H68.7501C72.1963 63.75 75.0001 60.9463 75.0001 57.4999V23.7499C75 23.06 74.44 22.5 73.7501 22.5Z" fill="black"/>
</g>
<defs>
<clipPath id="clip0_3_76">
<rect width="75" height="75" fill="white"/>
</clipPath>
</defs>
</svg>
