<svg width="75" height="75" viewBox="0 0 75 75" fill="none" xmlns="http://www.w3.org/2000/svg">
<path d="M70.4082 0H4.59184C2.0599 0 0 2.0599 0 4.59184V70.4082C0 72.9401 2.0599 75 4.59184 75H70.4082C72.9401 75 75 72.9401 75 70.4082V4.59184C75 2.0599 72.9401 0 70.4082 0ZM71.9388 70.4082C71.9388 71.2521 71.2521 71.9388 70.4082 71.9388H4.59184C3.74786 71.9388 3.06122 71.2521 3.06122 70.4082V4.59184C3.06122 3.74786 3.74786 3.06122 4.59184 3.06122H70.4082C71.2521 3.06122 71.9388 3.74786 71.9388 4.59184V70.4082Z" fill="black"/>
<path d="M52.8061 27.551H45.1531V19.9033C45.1647 19.901 45.1762 19.8992 45.1866 19.8979H51.2755C52.1209 19.8979 52.8061 19.2127 52.8061 18.3673V7.65305C52.8061 6.80784 52.1209 6.12244 51.2755 6.12244H42.0918C35.7753 6.12244 32.7628 9.49575 31.3479 12.3257C29.8639 15.2933 29.8469 18.2432 29.8469 18.3673V27.551H22.1939C21.3485 27.551 20.6633 28.2363 20.6633 29.0816V41.3265C20.6633 42.1719 21.3485 42.8571 22.1939 42.8571H28.3163V66.5816C28.3163 67.427 29.0016 68.1122 29.8469 68.1122H43.6225C44.4678 68.1122 45.1531 67.427 45.1531 66.5816V41.3265H51.2755C52.0373 41.3265 52.6831 40.7665 52.7907 40.0123L54.3213 29.298C54.384 28.8588 54.2532 28.414 53.9624 28.0788C53.6717 27.7436 53.2499 27.551 52.8061 27.551ZM49.948 38.2653H43.6225C42.7771 38.2653 42.0918 38.9505 42.0918 39.7959V65.051H31.3776V41.3265C31.3776 40.4813 30.6923 39.7959 29.8469 39.7959H23.7245V30.6122H31.3776C32.2229 30.6122 32.9082 29.927 32.9082 29.0816V18.3721C32.9083 18.3479 32.9371 15.9353 34.1291 13.609C35.6342 10.6726 38.3132 9.18366 42.0918 9.18366H49.7449V16.8367H45.1531C43.6691 16.8367 42.0918 17.9095 42.0918 19.8979V29.0816C42.0918 29.927 42.7771 30.6122 43.6225 30.6122H51.0413L49.948 38.2653Z" fill="black"/>
</svg>
