<svg width="75" height="75" viewBox="0 0 75 75" fill="none" xmlns="http://www.w3.org/2000/svg">
<path d="M63.125 8.59375H55.625C53.3844 8.59375 51.5625 10.4156 51.5625 12.6562V20.1562C51.5625 22.3969 53.3844 24.2187 55.625 24.2187H63.125C65.3656 24.2187 67.1875 22.3969 67.1875 20.1562V12.6562C67.1875 10.4156 65.3656 8.59375 63.125 8.59375ZM64.0625 20.1562C64.0625 20.6734 63.6422 21.0937 63.125 21.0937H55.625C55.1078 21.0937 54.6875 20.6734 54.6875 20.1562V12.6562C54.6875 12.1391 55.1078 11.7187 55.625 11.7187H63.125C63.6422 11.7187 64.0625 12.1391 64.0625 12.6562V20.1562Z" fill="black"/>
<path d="M59.0625 0.78125H15.9375C7.15 0.78125 0 7.95156 0 16.7672V27.3438V30.4688V58.2344C0 67.0484 7.15 74.2188 15.9375 74.2188H59.0625C67.85 74.2188 75 67.0484 75 58.2344V30.4688V27.3438V16.7672C75 7.95156 67.85 0.78125 59.0625 0.78125ZM71.875 58.2344C71.875 65.325 66.1266 71.0938 59.0625 71.0938H15.9375C8.87187 71.0938 3.125 65.325 3.125 58.2344V30.4688H22.2203C18.1562 34.4422 15.625 39.975 15.625 46.0938C15.625 58.1562 25.4375 67.9688 37.5 67.9688C49.5625 67.9688 59.375 58.1562 59.375 46.0938C59.375 39.975 56.8437 34.4422 52.7797 30.4688H71.875V58.2344ZM56.25 46.0938C56.25 56.4328 47.8391 64.8438 37.5 64.8438C27.1609 64.8438 18.75 56.4328 18.75 46.0938C18.75 35.7547 27.1609 27.3438 37.5 27.3438C47.8391 27.3438 56.25 35.7547 56.25 46.0938ZM48.7094 27.3438C45.4266 25.3734 41.6 24.2188 37.5 24.2188C33.4 24.2188 29.5734 25.3734 26.2906 27.3438H3.125V16.7672C3.125 9.675 8.87344 3.90625 15.9375 3.90625H59.0625C66.1266 3.90625 71.875 9.675 71.875 16.7672V27.3438H48.7094Z" fill="black"/>
<path d="M23.4375 46.0937C23.4375 53.8469 29.7453 60.1562 37.5 60.1562C45.2547 60.1562 51.5625 53.8469 51.5625 46.0937C51.5625 38.3406 45.2547 32.0312 37.5 32.0312C29.7453 32.0312 23.4375 38.3406 23.4375 46.0937ZM48.4375 46.0937C48.4375 52.125 43.5297 57.0312 37.5 57.0312C31.4703 57.0312 26.5625 52.125 26.5625 46.0937C26.5625 40.0625 31.4703 35.1562 37.5 35.1562C43.5297 35.1562 48.4375 40.0625 48.4375 46.0937Z" fill="black"/>
</svg>
