<svg width="230" height="38" viewBox="0 0 230 38" fill="none" xmlns="http://www.w3.org/2000/svg">
<path d="M23.9943 13.375C23.7557 12.5455 23.4205 11.8125 22.9887 11.1761C22.5568 10.5284 22.0284 9.98295 21.4034 9.53977C20.7898 9.08523 20.0852 8.73864 19.2898 8.5C18.5057 8.26136 17.6364 8.14204 16.6818 8.14204C14.8977 8.14204 13.3296 8.58523 11.9773 9.47159C10.6364 10.358 9.59093 11.6477 8.84093 13.3409C8.09093 15.0227 7.71593 17.0795 7.71593 19.5114C7.71593 21.9432 8.08524 24.0114 8.82388 25.7159C9.56252 27.4205 10.608 28.7216 11.9602 29.6193C13.3125 30.5057 14.9091 30.9489 16.75 30.9489C18.4205 30.9489 19.8466 30.6534 21.0284 30.0625C22.2216 29.4602 23.1307 28.6136 23.7557 27.5227C24.3921 26.4318 24.7102 25.142 24.7102 23.6534L26.2102 23.875H17.2102V18.3182H31.8182V22.7159C31.8182 25.7841 31.1705 28.4205 29.875 30.625C28.5796 32.8182 26.7955 34.5114 24.5227 35.7045C22.25 36.8864 19.6477 37.4773 16.7159 37.4773C13.4432 37.4773 10.5682 36.7557 8.09093 35.3125C5.61365 33.858 3.68184 31.7955 2.29547 29.125C0.920472 26.4432 0.232971 23.2614 0.232971 19.5795C0.232971 16.75 0.642062 14.2273 1.46024 12.0114C2.28979 9.78409 3.44888 7.89773 4.93752 6.35227C6.42615 4.80682 8.15911 3.63068 10.1364 2.82386C12.1137 2.01704 14.2557 1.61364 16.5625 1.61364C18.5398 1.61364 20.3807 1.90341 22.0852 2.48296C23.7898 3.05114 25.3012 3.85795 26.6193 4.90341C27.9489 5.94886 29.0341 7.19318 29.875 8.63636C30.7159 10.0682 31.2557 11.6477 31.4943 13.375H23.9943Z" fill="black"/>
<path d="M49.1577 37.5114C46.4645 37.5114 44.1463 36.9659 42.2031 35.875C40.2713 34.7727 38.7827 33.2159 37.7372 31.2045C36.6918 29.1818 36.169 26.7898 36.169 24.0284C36.169 21.3352 36.6918 18.9716 37.7372 16.9375C38.7827 14.9034 40.2543 13.3182 42.152 12.1818C44.0611 11.0455 46.2997 10.4773 48.8679 10.4773C50.5952 10.4773 52.2031 10.7557 53.6918 11.3125C55.1918 11.858 56.4986 12.6818 57.6122 13.7841C58.7372 14.8864 59.6122 16.2727 60.2372 17.9432C60.8622 19.6023 61.1747 21.5455 61.1747 23.7727V25.767H39.0668V21.267H54.3395C54.3395 20.2216 54.1122 19.2955 53.6577 18.4886C53.2031 17.6818 52.5725 17.0511 51.7656 16.5966C50.9702 16.1307 50.0441 15.8977 48.9872 15.8977C47.885 15.8977 46.9077 16.1534 46.0554 16.6648C45.2145 17.1648 44.5554 17.8409 44.0781 18.6932C43.6009 19.5341 43.3565 20.4716 43.3452 21.5057V25.7841C43.3452 27.0795 43.5838 28.1989 44.0611 29.142C44.5497 30.0852 45.2372 30.8125 46.1236 31.3239C47.01 31.8352 48.0611 32.0909 49.277 32.0909C50.0838 32.0909 50.8225 31.9773 51.4929 31.75C52.1634 31.5227 52.7372 31.1818 53.2145 30.7273C53.6918 30.2727 54.0554 29.7159 54.3054 29.0568L61.0213 29.5C60.6804 31.1136 59.9816 32.5227 58.9247 33.7273C57.8793 34.9205 56.527 35.8523 54.8679 36.5227C53.2202 37.1818 51.3168 37.5114 49.1577 37.5114Z" fill="black"/>
<path d="M77.8452 37.5114C75.152 37.5114 72.8338 36.9659 70.8906 35.875C68.9588 34.7727 67.4702 33.2159 66.4247 31.2045C65.3793 29.1818 64.8566 26.7898 64.8566 24.0284C64.8566 21.3352 65.3793 18.9716 66.4247 16.9375C67.4702 14.9034 68.9418 13.3182 70.8395 12.1818C72.7486 11.0455 74.9872 10.4773 77.5554 10.4773C79.2827 10.4773 80.8906 10.7557 82.3793 11.3125C83.8793 11.858 85.1861 12.6818 86.2997 13.7841C87.4247 14.8864 88.2997 16.2727 88.9247 17.9432C89.5497 19.6023 89.8622 21.5455 89.8622 23.7727V25.767H67.7543V21.267H83.027C83.027 20.2216 82.7997 19.2955 82.3452 18.4886C81.8906 17.6818 81.26 17.0511 80.4531 16.5966C79.6577 16.1307 78.7315 15.8977 77.6747 15.8977C76.5725 15.8977 75.5952 16.1534 74.7429 16.6648C73.902 17.1648 73.2429 17.8409 72.7656 18.6932C72.2884 19.5341 72.044 20.4716 72.0327 21.5057V25.7841C72.0327 27.0795 72.2713 28.1989 72.7486 29.142C73.2372 30.0852 73.9247 30.8125 74.8111 31.3239C75.6975 31.8352 76.7486 32.0909 77.9645 32.0909C78.7713 32.0909 79.51 31.9773 80.1804 31.75C80.8509 31.5227 81.4247 31.1818 81.902 30.7273C82.3793 30.2727 82.7429 29.7159 82.9929 29.0568L89.7088 29.5C89.3679 31.1136 88.669 32.5227 87.6122 33.7273C86.5668 34.9205 85.2145 35.8523 83.5554 36.5227C81.9077 37.1818 80.0043 37.5114 77.8452 37.5114Z" fill="black"/>
<path d="M101.18 29.4659L101.197 20.7557H102.254L110.641 10.8182H118.976L107.709 23.9773H105.987L101.18 29.4659ZM94.6009 37V2.09091H101.862V37H94.6009ZM110.965 37L103.26 25.5966L108.101 20.4659L119.47 37H110.965Z" fill="black"/>
<path d="M122.675 37V2.09091H136.447C139.095 2.09091 141.351 2.59659 143.215 3.60796C145.078 4.60796 146.499 6 147.476 7.78409C148.464 9.55682 148.959 11.6023 148.959 13.9205C148.959 16.2386 148.459 18.2841 147.459 20.0568C146.459 21.8295 145.01 23.2102 143.112 24.1989C141.226 25.1875 138.942 25.6818 136.26 25.6818H127.482V19.767H135.067C136.487 19.767 137.658 19.5227 138.578 19.0341C139.51 18.5341 140.203 17.8466 140.658 16.9716C141.124 16.0852 141.357 15.0682 141.357 13.9205C141.357 12.7614 141.124 11.75 140.658 10.8864C140.203 10.0114 139.51 9.33523 138.578 8.85796C137.646 8.36932 136.465 8.125 135.033 8.125H130.055V37H122.675Z" fill="black"/>
<path d="M153.616 37V10.8182H160.878V37H153.616ZM157.264 7.44318C156.185 7.44318 155.259 7.08523 154.486 6.36932C153.724 5.64204 153.344 4.77272 153.344 3.76136C153.344 2.76136 153.724 1.90341 154.486 1.1875C155.259 0.460226 156.185 0.0965881 157.264 0.0965881C158.344 0.0965881 159.264 0.460226 160.026 1.1875C160.798 1.90341 161.185 2.76136 161.185 3.76136C161.185 4.77272 160.798 5.64204 160.026 6.36932C159.264 7.08523 158.344 7.44318 157.264 7.44318Z" fill="black"/>
<path d="M172.763 10.8182L177.57 19.9716L182.496 10.8182H189.945L182.359 23.9091L190.149 37H182.734L177.57 27.9489L172.49 37H164.99L172.763 23.9091L165.263 10.8182H172.763Z" fill="black"/>
<path d="M205.251 37.5114C202.558 37.5114 200.24 36.9659 198.297 35.875C196.365 34.7727 194.876 33.2159 193.831 31.2045C192.786 29.1818 192.263 26.7898 192.263 24.0284C192.263 21.3352 192.786 18.9716 193.831 16.9375C194.876 14.9034 196.348 13.3182 198.246 12.1818C200.155 11.0455 202.393 10.4773 204.962 10.4773C206.689 10.4773 208.297 10.7557 209.786 11.3125C211.286 11.858 212.592 12.6818 213.706 13.7841C214.831 14.8864 215.706 16.2727 216.331 17.9432C216.956 19.6023 217.268 21.5455 217.268 23.7727V25.767H195.161V21.267H210.433C210.433 20.2216 210.206 19.2955 209.751 18.4886C209.297 17.6818 208.666 17.0511 207.859 16.5966C207.064 16.1307 206.138 15.8977 205.081 15.8977C203.979 15.8977 203.001 16.1534 202.149 16.6648C201.308 17.1648 200.649 17.8409 200.172 18.6932C199.695 19.5341 199.45 20.4716 199.439 21.5057V25.7841C199.439 27.0795 199.678 28.1989 200.155 29.142C200.643 30.0852 201.331 30.8125 202.217 31.3239C203.104 31.8352 204.155 32.0909 205.371 32.0909C206.178 32.0909 206.916 31.9773 207.587 31.75C208.257 31.5227 208.831 31.1818 209.308 30.7273C209.786 30.2727 210.149 29.7159 210.399 29.0568L217.115 29.5C216.774 31.1136 216.075 32.5227 215.018 33.7273C213.973 34.9205 212.621 35.8523 210.962 36.5227C209.314 37.1818 207.411 37.5114 205.251 37.5114Z" fill="black"/>
<path d="M229.268 2.09091V37H222.007V2.09091H229.268Z" fill="black"/>
</svg>
