<svg width="75" height="75" viewBox="0 0 75 75" fill="none" xmlns="http://www.w3.org/2000/svg">
<path d="M70.7898 16.6743C69.6342 16.9671 68.471 17.1967 67.4445 17.3994C67.1161 17.4644 66.8033 17.5257 66.5148 17.5849C65.7866 16.7402 65.092 15.9217 64.4179 15.1268C62.8624 13.2956 61.3935 11.5664 59.8602 9.91017C57.9431 7.83951 55.3225 6.53136 52.0727 6.02221C42.353 4.50234 31.935 10.8283 28.8465 20.1281C28.7008 20.5691 28.5444 21.0066 28.395 21.4263C28.3474 21.5591 28.3009 21.6899 28.2555 21.8189L28.2194 21.8227C28.1745 21.8274 28.1422 21.8329 28.132 21.8346C27.8582 21.7552 27.5895 21.659 27.3275 21.5468C21.9136 19.0835 17.6048 15.1728 14.1558 9.5926C13.995 9.3322 13.8427 9.06606 13.6897 8.79983C13.4027 8.27419 13.0838 7.76646 12.7349 7.27961C12.0804 6.40579 11.3284 5.96518 10.5743 6.00159C10.0689 6.02693 9.32851 6.28462 8.67317 7.37049C7.96852 8.59297 7.36719 9.87209 6.87539 11.1946C4.54116 17.1267 5.85273 23.016 7.2558 27.4842C7.41889 28.003 7.5724 28.5345 7.76669 29.208C7.82491 29.4156 7.89046 29.6373 7.96036 29.8778L2.8558 27.6691C2.81813 27.6528 2.77752 27.6444 2.73648 27.6445C2.69543 27.6446 2.65482 27.653 2.61719 27.6694C2.57956 27.6857 2.5457 27.7098 2.5177 27.7398C2.4897 27.7698 2.46815 27.8052 2.45441 27.8439C1.50049 30.5542 1.54215 32.7292 2.61928 36.464C4.15546 41.787 7.3624 46.0076 12.4172 49.3532C11.922 49.6922 11.4361 50.0317 10.9582 50.3658C8.18381 52.3065 5.5632 54.1398 2.3123 54.7256C1.38022 54.8933 0.700967 55.3194 0.344736 55.9571C-0.0362507 56.6401 -0.0310071 57.5272 0.359883 58.5226C0.872233 59.8269 1.45129 60.7704 2.13025 61.4086C3.71159 62.8939 5.15953 64.1978 6.86784 65.1C12.1725 67.9012 18.2802 69.3146 25.0567 69.3146C25.8872 69.3146 26.728 69.2938 27.5789 69.2516C36.411 68.8096 44.455 65.1639 51.4869 58.4175C58.7192 51.4784 63.5974 42.4514 65.9863 31.5859C66.4309 29.5639 66.9297 27.9209 68.9281 26.7062C71.2105 25.3183 72.9515 23.109 73.9629 20.3166C74.2771 19.4477 74.7076 18.2583 73.8404 17.196C72.9644 16.1235 71.8212 16.4128 70.7898 16.6743ZM6.3156 58.3114C6.97413 58.0518 7.59716 57.8064 8.20067 57.5521C11.4927 56.2101 14.4045 54.0794 16.68 51.3479C17.4373 50.4257 17.7219 49.7734 17.6278 49.1661C17.5322 48.5487 17.047 47.9973 16.0048 47.3221C12.2212 44.8693 9.69202 42.2831 8.04574 39.1856C7.11712 37.438 6.23576 35.5103 6.0377 33.2467C6.8303 33.1766 7.62916 33.242 8.39993 33.4398C9.66202 33.6825 10.9672 33.9351 12.2879 33.1812C12.3353 33.1543 12.3744 33.1149 12.4012 33.0673C13.0711 31.8676 12.5759 30.8018 12.1352 29.8619C12.0356 29.6484 11.9354 29.4342 11.8477 29.2175C9.73715 24.0066 9.06725 19.6113 9.7395 15.3849C9.87051 14.6639 10.0445 13.9513 10.2606 13.251C10.3346 12.9912 10.4109 12.7232 10.4872 12.4436C11.0554 12.8865 11.5287 13.4394 11.8786 14.0692C12.0126 14.2792 12.1515 14.4962 12.2995 14.7007C15.7502 19.4572 19.5848 22.7905 24.0221 24.8909C25.0185 25.3778 26.0473 25.7953 27.1012 26.1405C28.3735 26.5427 29.1261 26.5745 29.6989 26.25C30.2619 25.9296 30.6278 25.2656 30.9223 24.0259C31.6446 20.9879 32.8822 18.5258 34.7065 16.4997C38.9699 11.7648 44.1493 9.54602 50.0942 9.90662C52.7916 10.07 54.971 11.0289 56.5851 12.7707C58.2497 14.5673 59.9707 16.4251 61.2018 18.5089C62.791 21.1997 64.6931 22.1621 67.3735 21.6334C67.6185 21.5995 67.8666 21.5929 68.1129 21.6141L68.2527 21.619C67.437 22.8013 66.5121 23.5354 65.4373 23.8564C63.1243 24.5461 62.408 26.3048 61.8235 28.2004C61.496 29.2627 61.1765 30.3478 60.8667 31.3966C59.9845 34.3851 59.0725 37.4756 57.8889 40.3898C53.8305 50.3805 47.3033 57.6351 38.4872 61.95C31.7005 65.2704 24.8295 66.0879 18.0629 64.3766C15.0788 63.6222 12.2039 62.7617 9.51752 61.8191C7.64727 61.1627 6.41811 60.1642 5.57398 58.6043C5.8312 58.5027 6.07733 58.4055 6.3156 58.3114Z" fill="black"/>
</svg>
